<svg width="555" height="663" viewBox="0 0 555 663" fill="none" xmlns="http://www.w3.org/2000/svg">
<mask id="mask0_127_270" style="mask-type:alpha" maskUnits="userSpaceOnUse" x="0" y="0" width="555" height="663">
<rect x="0.924316" y="0.848633" width="553.48" height="661.984" rx="140" fill="#C4C4C4"/>
</mask>
<g mask="url(#mask0_127_270)">
<path d="M283.733 845.617L282.865 844.793L281.668 844.793L281.333 844.793L280.136 844.793L279.267 845.617C201.957 918.985 98.0946 959.788 -9.87433 959.181C-117.842 958.574 -221.212 916.61 -297.647 842.38C-412.181 730.822 -490.17 588.697 -521.765 433.985C-553.36 279.273 -537.145 118.91 -475.168 -26.8305C-413.189 -172.572 -308.227 -297.152 -173.542 -384.808C-38.8556 -472.464 119.5 -519.255 281.5 -519.255C443.501 -519.255 601.857 -472.464 736.543 -384.808C871.228 -297.152 976.19 -172.572 1038.17 -26.8304C1100.15 118.91 1116.36 279.273 1084.77 433.985C1053.17 588.698 975.181 730.822 860.648 842.38C784.213 916.61 680.842 958.574 572.875 959.181C464.906 959.788 361.043 918.985 283.733 845.617ZM279.575 632.905L281.668 634.944L283.761 632.906L464.854 456.601L464.854 456.6C501.076 421.31 525.751 376.34 535.746 327.373C545.74 278.407 540.603 227.653 520.987 181.535C501.371 135.418 468.162 96.0148 425.571 68.2977C382.981 40.5812 332.917 25.7909 281.71 25.7909C230.502 25.7909 180.439 40.5812 137.849 68.2977C95.2575 96.0148 62.0486 135.418 42.4328 181.535C22.8166 227.653 17.6793 278.407 27.6739 327.373C37.6685 376.34 62.343 421.31 98.565 456.6L100.659 454.451L98.5653 456.6L279.575 632.905Z" stroke="url(#paint0_linear_127_270)" stroke-width="6"/>
</g>
<defs>
<linearGradient id="paint0_linear_127_270" x1="1014.19" y1="-84.5697" x2="-428.067" y2="674.181" gradientUnits="userSpaceOnUse">
<stop offset="0.504594" stop-color="#2AB2DF"/>
<stop offset="0.711212" stop-color="#00BEB0"/>
<stop offset="1" stop-color="#4A5660"/>
</linearGradient>
</defs>
</svg>
