<svg width="84" height="100" viewBox="0 0 84 100" fill="none" xmlns="http://www.w3.org/2000/svg">
<path d="M13.7119 69.0296L41.9935 96.6722L70.2881 69.0296C75.8811 63.5615 79.6896 56.595 81.2322 49.0112C82.7747 41.4275 81.9819 33.567 78.9541 26.4236C75.9263 19.2803 70.7994 13.175 64.2217 8.87946C57.644 4.58393 49.9108 2.29101 42 2.29101C34.0892 2.29101 26.356 4.58393 19.7783 8.87946C13.2006 13.175 8.07371 19.2803 5.04588 26.4236C2.01807 33.567 1.22529 41.4275 2.76784 49.0112C4.31038 56.595 8.11892 63.5615 13.7119 69.0296Z" fill="#F5F3F0" stroke="url(#paint0_linear_92_895)" stroke-width="4"/>
<defs>
<linearGradient id="paint0_linear_92_895" x1="77.6542" y1="30.1192" x2="0.547696" y2="61.1657" gradientUnits="userSpaceOnUse">
<stop offset="0.504594" stop-color="#2AB2DF"/>
<stop offset="0.711212" stop-color="#00BEB0"/>
<stop offset="1" stop-color="#4A5660"/>
</linearGradient>
</defs>
</svg>
