<svg width="24" height="25" viewBox="0 0 24 25" fill="none" xmlns="http://www.w3.org/2000/svg">
<path d="M4.75 2.10596C3.57639 2.10596 2.625 3.05735 2.625 4.23096C2.625 5.40456 3.57639 6.35596 4.75 6.35596C5.9236 6.35596 6.875 5.40456 6.875 4.23096C6.875 3.05735 5.9236 2.10596 4.75 2.10596Z" fill="#F5F3F0"/>
<path d="M2.75 8.10596C2.68096 8.10596 2.625 8.16192 2.625 8.23096V21.231C2.625 21.3 2.68096 21.356 2.75 21.356H6.75C6.81904 21.356 6.875 21.3 6.875 21.231V8.23096C6.875 8.16192 6.81904 8.10596 6.75 8.10596H2.75Z" fill="#F5F3F0"/>
<path d="M9.25 8.10596C9.18096 8.10596 9.125 8.16192 9.125 8.23096V21.231C9.125 21.3 9.18096 21.356 9.25 21.356H13.25C13.319 21.356 13.375 21.3 13.375 21.231V14.231C13.375 13.7337 13.5725 13.2568 13.9242 12.9051C14.2758 12.5535 14.7527 12.356 15.25 12.356C15.7473 12.356 16.2242 12.5535 16.5758 12.9051C16.9275 13.2568 17.125 13.7337 17.125 14.231V21.231C17.125 21.3 17.181 21.356 17.25 21.356H21.25C21.319 21.356 21.375 21.3 21.375 21.231V12.6112C21.375 10.1845 19.2644 8.28595 16.8498 8.50546C16.1052 8.57315 15.369 8.75827 14.6815 9.0529L13.375 9.61282V8.23096C13.375 8.16192 13.319 8.10596 13.25 8.10596H9.25Z" fill="#F5F3F0"/>
</svg>
