<svg width="24" height="25" viewBox="0 0 24 25" fill="none" xmlns="http://www.w3.org/2000/svg">
<path d="M21.8098 6.45819C21.8677 6.37742 21.7821 6.27314 21.6894 6.30906C21.0307 6.56439 20.3423 6.73666 19.64 6.82156C20.4219 6.35443 21.0253 5.64335 21.3599 4.80149C21.394 4.71573 21.3003 4.63914 21.2195 4.68376C20.4928 5.0851 19.7091 5.37409 18.8949 5.54053C18.8608 5.5475 18.8257 5.53589 18.8018 5.51065C18.1908 4.86597 17.3866 4.43674 16.5098 4.28841C15.6147 4.13696 14.6946 4.28692 13.8938 4.71475C13.0931 5.14258 12.457 5.82409 12.0853 6.65239C11.7319 7.43995 11.6365 8.31786 11.8108 9.16099C11.8243 9.22641 11.7731 9.28817 11.7065 9.28403C10.1224 9.18565 8.57469 8.76432 7.15868 8.04542C5.74627 7.32835 4.49554 6.33078 3.48267 5.11425C3.43772 5.06026 3.35252 5.06725 3.31977 5.1294C3.0046 5.72747 2.83958 6.39406 2.84003 7.07156C2.83875 7.74594 3.00425 8.41017 3.32178 9.00512C3.63932 9.60007 4.09905 10.1073 4.66003 10.4816C4.0651 10.4654 3.48178 10.3183 2.95128 10.0516C2.88291 10.0173 2.8009 10.0662 2.80446 10.1426C2.84583 11.0319 3.17228 11.9246 3.73734 12.6095C4.33866 13.3384 5.17328 13.8372 6.10003 14.0216C5.74328 14.1301 5.3729 14.1874 5.00003 14.1916C4.79709 14.1892 4.59454 14.1742 4.39356 14.1467C4.31904 14.1365 4.2582 14.2073 4.28428 14.2779C4.5607 15.0254 5.04903 15.6776 5.6911 16.1537C6.37755 16.6627 7.2056 16.9451 8.06003 16.9616C6.61723 18.0968 4.83591 18.7164 3.00003 18.7216C2.81138 18.7222 2.62282 18.7161 2.43471 18.7032C2.3287 18.696 2.27995 18.8373 2.37132 18.8915C4.16009 19.953 6.20462 20.5141 8.29003 20.5116C9.82972 20.5275 11.3572 20.2366 12.7831 19.6556C14.2091 19.0747 15.5051 18.2154 16.5952 17.1281C17.6854 16.0407 18.548 14.7469 19.1326 13.3225C19.7172 11.898 20.0121 10.3713 20 8.83156V8.35173C20 8.32016 20.015 8.29047 20.0402 8.27144C20.7184 7.7593 21.3149 7.14786 21.8098 6.45819Z" fill="#172744"/>
</svg>
