<svg width="1681" height="600" viewBox="0 0 1681 600" fill="none" xmlns="http://www.w3.org/2000/svg">
<mask id="mask0_127_263" style="mask-type:alpha" maskUnits="userSpaceOnUse" x="0" y="0" width="1681" height="601">
<rect x="1681" width="600.001" height="1681" rx="8" transform="rotate(90 1681 0)" fill="#1B2431"/>
</mask>
<g mask="url(#mask0_127_263)">
<path d="M672.706 737.261L672.704 737.259C579.361 646.308 515.787 530.425 490.034 404.257C464.281 278.089 477.508 147.315 528.038 28.4747C578.568 -90.3646 664.129 -191.926 773.888 -263.374C883.646 -334.821 1012.68 -372.951 1144.67 -372.951C1276.66 -372.951 1405.69 -334.821 1515.45 -263.374C1625.21 -191.926 1710.77 -90.3646 1761.3 28.4747C1811.83 147.315 1825.05 278.089 1799.3 404.257C1773.55 530.425 1709.97 646.308 1616.63 737.259L1616.63 737.262C1568.63 783.883 1503.82 810.322 1436.08 810.939C1368.34 811.556 1303.04 786.303 1254.16 740.566L1251.86 738.418L1254.11 736.226L1435.04 560.042C1492.45 504.11 1531.54 432.855 1547.38 355.295C1563.21 277.736 1555.09 197.342 1524.03 124.277C1492.96 51.2113 1440.35 -11.2521 1372.83 -55.2047C1305.31 -99.1578 1225.93 -122.622 1144.71 -122.622C1063.49 -122.622 984.102 -99.1578 916.584 -55.2047C849.067 -11.2521 796.456 51.2113 765.392 124.277C734.329 197.342 726.204 277.736 742.04 355.295C757.877 432.854 796.966 504.108 854.379 560.041C854.379 560.041 854.38 560.042 854.38 560.042M672.706 737.261L852.287 562.191L854.38 560.042M672.706 737.261C720.711 783.956 785.576 810.443 853.377 811.06C921.177 811.678 986.539 786.376 1035.43 740.564L1037.72 738.416L1035.47 736.225L854.38 560.042M672.706 737.261L854.38 560.042M1146.73 844.948L1145.86 844.124L1144.67 844.124L1144.33 844.124L1143.13 844.124L1142.27 844.948C1064.96 918.335 961.093 959.147 853.125 958.54C745.157 957.933 641.787 915.958 565.352 841.71C450.818 730.126 372.829 587.966 341.234 433.217C309.639 278.467 325.853 118.065 387.832 -27.711C449.81 -173.488 554.772 -298.098 689.457 -385.775C824.143 -473.452 982.499 -520.255 1144.5 -520.255C1306.5 -520.255 1464.86 -473.452 1599.54 -385.775C1734.23 -298.098 1839.19 -173.488 1901.17 -27.7109C1963.15 118.065 1979.36 278.467 1947.76 433.217C1916.17 587.967 1838.18 730.126 1723.65 841.71C1647.21 915.958 1543.84 957.933 1435.87 958.54C1327.9 959.147 1224.04 918.335 1146.73 844.948ZM1142.57 632.184L1144.67 634.223L1146.76 632.184L1327.85 455.837L1327.85 455.836C1364.08 420.537 1388.75 375.556 1398.74 326.579C1408.74 277.6 1403.6 226.835 1383.99 180.706C1364.37 134.578 1331.16 95.1653 1288.57 67.4415C1245.98 39.7183 1195.92 24.9244 1144.71 24.9244C1093.5 24.9244 1043.44 39.7183 1000.85 67.4415C958.256 95.1652 925.047 134.578 905.432 180.706C885.816 226.835 880.678 277.6 890.673 326.579C900.667 375.556 925.342 420.537 961.564 455.836L963.657 453.687L961.564 455.836L1142.57 632.184Z" fill="transparent" stroke="url(#paint0_radial_127_263)" stroke-width="6"/>
<g filter="url(#filter0_i_127_263)">
</g>
</g>
<defs>
<filter id="filter0_i_127_263" x="888.499" y="28.4375" width="512" height="605.315" filterUnits="userSpaceOnUse" color-interpolation-filters="sRGB">
<feFlood flood-opacity="0" result="BackgroundImageFix"/>
<feBlend mode="normal" in="SourceGraphic" in2="BackgroundImageFix" result="shape"/>
<feColorMatrix in="SourceAlpha" type="matrix" values="0 0 0 0 0 0 0 0 0 0 0 0 0 0 0 0 0 0 127 0" result="hardAlpha"/>
<feOffset dy="4"/>
<feGaussianBlur stdDeviation="57"/>
<feComposite in2="hardAlpha" operator="arithmetic" k2="-1" k3="1"/>
<feColorMatrix type="matrix" values="0 0 0 0 0 0 0 0 0 0 0 0 0 0 0 0 0 0 0.75 0"/>
<feBlend mode="normal" in2="shape" result="effect1_innerShadow_127_263"/>
</filter>
<radialGradient id="paint0_radial_127_263" cx="0" cy="0" r="1" gradientUnits="userSpaceOnUse" gradientTransform="translate(1147.85 278.396) rotate(153.486) scale(815.064 744.096)">
<stop offset="0.276042" stop-color="#2AB2DF"/>
<stop offset="0.711212" stop-color="#00BEB0" stop-opacity="0.42"/>
<stop offset="1" stop-color="#2AB2DF" stop-opacity="0.3"/>
</radialGradient>
</defs>
</svg>
