<svg width="84" height="100" viewBox="0 0 84 100" fill="none" xmlns="http://www.w3.org/2000/svg">
<path d="M13.7119 68.9896L41.9935 96.6322L70.2881 68.9896C75.8811 63.5214 79.6896 56.5549 81.2322 48.9712C82.7747 41.3875 81.9819 33.527 78.9541 26.3836C75.9263 19.2402 70.7994 13.135 64.2217 8.83942C57.644 4.54389 49.9108 2.25098 42 2.25097C34.0892 2.25097 26.356 4.54389 19.7783 8.83942C13.2006 13.1349 8.07371 19.2402 5.04588 26.3836C2.01807 33.527 1.22529 41.3875 2.76784 48.9712C4.31038 56.5549 8.11892 63.5214 13.7119 68.9896Z" fill="#F5F3F0" stroke="url(#paint0_linear_230_321)" stroke-width="4"/>
<path d="M25.7727 35.2292C25.5195 35.2292 25.3032 35.1407 25.1244 34.9628C24.9453 34.7847 24.8557 34.5698 24.8557 34.3183C24.8557 34.0709 24.9453 33.8584 25.1244 33.6805C25.3032 33.5028 25.5195 33.4138 25.7727 33.4138C26.0217 33.4138 26.2356 33.5028 26.4147 33.6805C26.5982 33.854 26.6897 34.0669 26.6897 34.3183C26.6897 34.5742 26.5982 34.7891 26.4147 34.9628C26.2356 35.1407 26.0217 35.2292 25.7727 35.2292Z" fill="#C1C1C1"/>
<path d="M39.2792 47.324C39.4329 47.2492 39.6066 47.1969 39.7999 47.1669C40.0154 47.1337 40.2115 47.2982 40.2115 47.5146C40.2115 47.6962 40.0727 47.8451 39.8913 47.864C39.6541 47.8889 39.3307 47.9708 39.0795 48.2153C38.8392 48.449 38.7308 48.8003 38.7308 49.2465V50.9744C38.7308 51.1808 38.5624 51.3481 38.3548 51.3481C38.1472 51.3481 37.9788 51.1808 37.9788 50.9744V47.5342C37.9788 47.3364 38.1401 47.1762 38.3391 47.1762C38.5381 47.1762 38.6994 47.3364 38.6994 47.5342V47.8689C38.83 47.6302 39.0233 47.4485 39.2792 47.324Z" fill="#C1C1C1"/>
<path d="M41.9467 48.0944C41.7036 48.3123 41.5614 48.598 41.5195 48.9506H44.1833C44.1414 48.603 43.9992 48.3187 43.7563 48.0984C43.5135 47.8778 43.2119 47.7676 42.8514 47.7676C42.4909 47.7676 42.1893 47.8764 41.9467 48.0944ZM44.8884 49.4877H41.5195C41.5666 49.851 41.7274 50.1427 42.0014 50.3635C42.2756 50.5839 42.6164 50.6943 43.0238 50.6943C43.4012 50.6943 43.7227 50.5982 43.9883 50.4061C44.1303 50.3033 44.3249 50.3151 44.439 50.4478C44.5549 50.5828 44.5448 50.7909 44.4062 50.9024C44.2676 51.0143 44.1108 51.1057 43.9364 51.1768C43.657 51.291 43.3451 51.3481 43.0003 51.3481C42.5615 51.3481 42.1724 51.2586 41.8328 51.0795C41.4934 50.9004 41.2308 50.6501 41.0455 50.3285C40.8602 50.0069 40.7677 49.6434 40.7677 49.2386C40.7677 48.8391 40.8576 48.4785 41.0379 48.1566C41.218 47.835 41.466 47.5845 41.7821 47.4056C42.098 47.2265 42.4545 47.137 42.8514 47.137C43.2483 47.137 43.6022 47.2265 43.9131 47.4056C44.2237 47.5845 44.4665 47.835 44.6416 48.1566C44.8164 48.4785 44.9041 48.847 44.9041 49.262C44.9041 49.3192 44.8987 49.3944 44.8884 49.4877Z" fill="#C1C1C1"/>
<path d="M48.8565 50.5114C49.0679 50.3894 49.2351 50.2181 49.3578 49.9977C49.4806 49.777 49.5419 49.5241 49.5419 49.2387C49.5419 48.9534 49.4806 48.7004 49.3578 48.4797C49.2351 48.2592 49.0679 48.0893 48.8565 47.97C48.6448 47.8507 48.406 47.7909 48.1397 47.7909C47.8785 47.7909 47.6421 47.8518 47.4305 47.9738C47.219 48.0957 47.0519 48.2658 46.9293 48.4837C46.8066 48.7016 46.7452 48.9534 46.7452 49.2387C46.7452 49.5241 46.805 49.777 46.9253 49.9977C47.0454 50.2181 47.2124 50.3894 47.4267 50.5114C47.6407 50.6331 47.8785 50.6943 48.1397 50.6943C48.406 50.6943 48.6448 50.6331 48.8565 50.5114ZM49.2832 47.4017C49.6019 47.5783 49.8514 47.8249 50.0316 48.1413C50.2117 48.4579 50.3018 48.8237 50.3018 49.2387C50.3018 49.6539 50.2117 50.0209 50.0316 50.3401C49.8514 50.6591 49.6019 50.9072 49.2832 51.0833C48.9647 51.26 48.6044 51.3481 48.2022 51.3481C47.9047 51.3481 47.6317 51.291 47.3836 51.1768C47.1353 51.0629 46.9253 50.8966 46.7529 50.6787V52.4379C46.7529 52.6442 46.5845 52.8115 46.3769 52.8115C46.1692 52.8115 46.0009 52.6442 46.0009 52.4379V47.5342C46.0009 47.3364 46.1624 47.1762 46.3614 47.1762C46.5604 47.1762 46.7217 47.3364 46.7217 47.5342V47.8299C46.8887 47.6016 47.1003 47.4289 47.3562 47.3121C47.6122 47.1954 47.894 47.1371 48.2022 47.1371C48.6044 47.1371 48.9647 47.2256 49.2832 47.4017Z" fill="#C1C1C1"/>
<path d="M55.2686 47.5498V50.9473C55.2686 51.1429 55.109 51.3014 54.9123 51.3014C54.7153 51.3014 54.5558 51.1429 54.5558 50.9473V50.6787C54.4041 50.8914 54.2043 51.0564 53.9564 51.1731C53.7082 51.2898 53.4382 51.3481 53.1456 51.3481C52.592 51.3481 52.1558 51.1963 51.8373 50.8926C51.5186 50.5892 51.3595 50.1416 51.3595 49.5499V47.5498C51.3595 47.3431 51.5277 47.1761 51.7355 47.1761C51.9431 47.1761 52.1115 47.3431 52.1115 47.5498V49.4645C52.1115 49.8642 52.2079 50.1664 52.4012 50.3712C52.5944 50.5761 52.8714 50.6787 53.2315 50.6787C53.6285 50.6787 53.9419 50.5593 54.1719 50.3205C54.4016 50.082 54.5165 49.7446 54.5165 49.3086V47.5498C54.5165 47.3431 54.6849 47.1761 54.8925 47.1761C55.1002 47.1761 55.2686 47.3431 55.2686 47.5498Z" fill="#C1C1C1"/>
<path d="M59.6125 50.5114C59.824 50.3894 59.9912 50.2181 60.1139 49.9977C60.2366 49.777 60.298 49.5241 60.298 49.2386C60.298 48.9534 60.2366 48.7003 60.1139 48.4796C59.9912 48.2591 59.824 48.0892 59.6125 47.9699C59.4009 47.8506 59.1621 47.7908 58.8957 47.7908C58.6346 47.7908 58.3968 47.8506 58.1829 47.9699C57.9684 48.0892 57.8014 48.2591 57.6813 48.4796C57.5612 48.7003 57.5013 48.9534 57.5013 49.2386C57.5013 49.5241 57.5612 49.777 57.6813 49.9977C57.8014 50.2181 57.9684 50.3894 58.1829 50.5114C58.3968 50.6331 58.6346 50.6943 58.8957 50.6943C59.1621 50.6943 59.4009 50.6331 59.6125 50.5114ZM60.0394 47.4016C60.3579 47.5781 60.6074 47.8248 60.7877 48.1412C60.9677 48.4578 61.058 48.8237 61.058 49.2386C61.058 49.6539 60.9677 50.0209 60.7877 50.3401C60.6074 50.6591 60.3579 50.9072 60.0394 51.0833C59.7208 51.26 59.3604 51.3481 58.9583 51.3481C58.6502 51.3481 58.368 51.2886 58.1123 51.169C57.8564 51.0497 57.6449 50.8758 57.4777 50.6475V50.9434C57.4777 51.1411 57.3164 51.3014 57.1174 51.3014C56.9182 51.3014 56.7571 51.1411 56.7571 50.9434V45.8994C56.7571 45.6931 56.9255 45.5258 57.1331 45.5258C57.3407 45.5258 57.5091 45.6931 57.5091 45.8994V47.7988C57.6761 47.5807 57.8851 47.4159 58.1358 47.3042C58.3863 47.1929 58.6607 47.1369 58.9583 47.1369C59.3604 47.1369 59.7208 47.2255 60.0394 47.4016Z" fill="#C1C1C1"/>
<path d="M62.5307 45.5258C62.7383 45.5258 62.9067 45.6931 62.9067 45.8994V50.9744C62.9067 51.1808 62.7383 51.3481 62.5307 51.3481C62.3231 51.3481 62.1547 51.1808 62.1547 50.9744V45.8994C62.1547 45.6931 62.3231 45.5258 62.5307 45.5258Z" fill="#C1C1C1"/>
<path d="M64.7712 47.1761C64.9788 47.1761 65.1472 47.3431 65.1472 47.5495V50.9744C65.1472 51.1808 64.9788 51.3481 64.7712 51.3481C64.5634 51.3481 64.395 51.1808 64.395 50.9744V47.5495C64.395 47.3431 64.5634 47.1761 64.7712 47.1761ZM64.4829 46.2712C64.4064 46.1973 64.3684 46.1072 64.3684 46.0003C64.3684 45.8936 64.4064 45.8023 64.4829 45.7265C64.5593 45.6505 64.6553 45.6124 64.7712 45.6124C64.8867 45.6124 64.9826 45.6483 65.0591 45.7201C65.1355 45.7921 65.174 45.8813 65.174 45.988C65.174 46.099 65.1355 46.1923 65.0591 46.2682C64.9826 46.344 64.8867 46.382 64.7712 46.382C64.6553 46.382 64.5593 46.345 64.4829 46.2712Z" fill="#C1C1C1"/>
<path d="M67.3134 51.0755C66.9816 50.8942 66.7219 50.6435 66.5338 50.3245C66.3459 50.0055 66.252 49.6434 66.252 49.2386C66.252 48.8338 66.3459 48.4721 66.5338 48.1529C66.7219 47.8338 66.9816 47.5845 67.3134 47.4056C67.645 47.2265 68.0224 47.137 68.4453 47.137C68.8213 47.137 69.1569 47.2123 69.452 47.3628C69.63 47.4536 69.7841 47.5689 69.9135 47.7092C70.0501 47.8564 70.0215 48.0908 69.8523 48.1992L69.8095 48.2264C69.6759 48.3119 69.5053 48.2823 69.3939 48.1694C69.3005 48.0748 69.1959 47.9979 69.08 47.9387C68.8867 47.8402 68.6724 47.7908 68.4374 47.7908C68.166 47.7908 67.9218 47.8506 67.7051 47.9699C67.4884 48.0892 67.3186 48.2591 67.1957 48.4796C67.0732 48.7003 67.0116 48.9534 67.0116 49.2386C67.0116 49.5293 67.0732 49.7847 67.1957 50.0055C67.3186 50.2259 67.4884 50.3958 67.7051 50.5154C67.9218 50.6345 68.166 50.6943 68.4374 50.6943C68.6724 50.6943 68.8867 50.6449 69.08 50.5464C69.1967 50.4868 69.3019 50.4093 69.3959 50.3137C69.5061 50.2013 69.6753 50.1713 69.8089 50.255L69.8477 50.2793C70.0191 50.3865 70.0491 50.6224 69.9121 50.7705C69.7829 50.9104 69.6294 51.0264 69.452 51.1185C69.1569 51.2716 68.8213 51.3481 68.4453 51.3481C68.0224 51.3481 67.645 51.2574 67.3134 51.0755Z" fill="#C1C1C1"/>
<path d="M19.2165 42.9139C17.8899 42.9139 16.8107 41.8416 16.8107 40.5234C16.8107 39.2052 17.8899 38.133 19.2165 38.133C20.5431 38.133 21.6224 39.2052 21.6224 40.5234C21.6224 41.8416 20.5431 42.9139 19.2165 42.9139ZM23.4331 40.5234C23.4331 38.2134 21.5415 36.334 19.2165 36.334C18.3223 36.334 17.4937 36.6141 16.8107 37.0876V34.3149C16.8107 33.818 16.4053 33.4154 15.9053 33.4154C15.4053 33.4154 15 33.818 15 34.3149V40.5234C15 42.8335 16.8915 44.7129 19.2165 44.7129C21.5415 44.7129 23.4331 42.8335 23.4331 40.5234Z" fill="#172744"/>
<path d="M32.3291 42.9136C31.0022 42.9136 29.9231 41.8413 29.9231 40.5231C29.9231 39.205 31.0022 38.1328 32.3291 38.1328C33.6555 38.1328 34.7348 39.205 34.7348 40.5231C34.7348 41.8413 33.6555 42.9136 32.3291 42.9136ZM32.3291 36.3337C30.0039 36.3337 28.1124 38.2131 28.1124 40.5231C28.1124 42.8332 30.0039 44.7126 32.3291 44.7126C33.2231 44.7126 34.0514 44.4327 34.7344 43.9594C34.725 47.0471 32.1941 49.5567 29.0839 49.5567C26.6338 49.5567 24.4752 48.0038 23.7127 45.6926C23.557 45.2203 23.0454 44.9631 22.5704 45.118C22.0953 45.2727 21.8363 45.7808 21.992 46.2527C22.9991 49.305 25.8491 51.3557 29.0839 51.3557C33.1984 51.3557 36.5455 48.0299 36.5455 43.9422C36.5455 43.9422 36.5437 40.4903 36.5435 40.4835C36.5218 38.1917 34.6405 36.3337 32.3291 36.3337Z" fill="#172744"/>
<path d="M52.0643 42.9139C50.7379 42.9139 49.6583 41.8416 49.6583 40.5235C49.6583 39.2054 50.7379 38.1332 52.0643 38.1332C53.3909 38.1332 54.4701 39.2054 54.4701 40.5235C54.4701 41.8416 53.3909 42.9139 52.0643 42.9139ZM52.0643 36.3342C49.7394 36.3342 47.8477 38.2136 47.8477 40.5235C47.8477 42.8335 49.7394 44.7129 52.0643 44.7129C52.9646 44.7129 53.7983 44.4287 54.484 43.9491C54.5502 44.3809 54.9224 44.7129 55.3754 44.7129C55.8756 44.7129 56.2808 44.3102 56.2808 43.8134V40.5235C56.2808 38.2136 54.3892 36.3342 52.0643 36.3342Z" fill="#172744"/>
<path d="M65.78 42.9139C64.4535 42.9139 63.3742 41.8416 63.3742 40.5235C63.3742 39.2054 64.4535 38.1332 65.78 38.1332C67.1066 38.1332 68.186 39.2054 68.186 40.5235C68.186 41.8416 67.1066 42.9139 65.78 42.9139ZM65.78 36.3342C63.455 36.3342 61.5635 38.2136 61.5635 40.5235C61.5635 42.8335 63.455 44.7129 65.78 44.7129C66.6805 44.7129 67.514 44.4287 68.1998 43.9491C68.266 44.3809 68.638 44.7129 69.0913 44.7129C69.5915 44.7129 69.9966 44.3102 69.9966 43.8134V40.5235C69.9966 38.2136 68.1051 36.3342 65.78 36.3342Z" fill="#172744"/>
<path d="M60.5137 42.9373C59.9689 42.9373 59.5256 42.4969 59.5256 41.9556V38.1328H60.4537C60.9537 38.1328 61.3591 37.73 61.3591 37.2333C61.3591 36.7364 60.9537 36.3338 60.4537 36.3338H59.5256V34.3147C59.5256 33.8177 59.1205 33.4152 58.6203 33.4152C58.1204 33.4152 57.715 33.8177 57.715 34.3147V41.9556C57.715 43.4889 58.9706 44.7363 60.5137 44.7363C61.0136 44.7363 61.419 44.3336 61.419 43.8368C61.419 43.34 61.0136 42.9373 60.5137 42.9373Z" fill="#172744"/>
<path d="M42.1967 42.9139C40.8701 42.9139 39.7909 41.8416 39.7909 40.5234C39.7909 39.2052 40.8701 38.133 42.1967 38.133C43.5233 38.133 44.6027 39.2052 44.6027 40.5234C44.6027 41.8416 43.5233 42.9139 42.1967 42.9139ZM45.508 33.4154C45.0079 33.4154 44.6027 33.818 44.6027 34.3149V37.0876C43.9195 36.6141 43.091 36.334 42.1967 36.334C39.8716 36.334 37.9802 38.2134 37.9802 40.5234C37.9802 42.8335 39.8716 44.7129 42.1967 44.7129C44.5218 44.7129 46.4134 42.8335 46.4134 40.5234V34.3149C46.4134 33.818 46.008 33.4154 45.508 33.4154Z" fill="#172744"/>
<path d="M29.0841 48.1274C29.8683 48.1274 30.6338 47.912 31.2983 47.504C31.7236 47.2429 31.8554 46.6887 31.5927 46.2661C31.3297 45.8433 30.772 45.7126 30.3465 45.9736C29.9683 46.2058 29.5317 46.3284 29.0841 46.3284C27.7574 46.3284 26.6781 45.2563 26.6781 43.9383L26.6784 37.2332C26.6784 36.7363 26.2732 36.3337 25.7731 36.3337C25.2731 36.3337 24.8677 36.7363 24.8677 37.2332L24.8674 43.9383C24.8674 46.2483 26.7589 48.1274 29.0841 48.1274Z" fill="#172744"/>
<defs>
<linearGradient id="paint0_linear_230_321" x1="77.6542" y1="30.0791" x2="0.547696" y2="61.1256" gradientUnits="userSpaceOnUse">
<stop offset="0.504594" stop-color="#2AB2DF"/>
<stop offset="0.711212" stop-color="#00BEB0"/>
<stop offset="1" stop-color="#4A5660"/>
</linearGradient>
</defs>
</svg>
