<svg width="84" height="101" viewBox="0 0 84 101" fill="none" xmlns="http://www.w3.org/2000/svg">
<path d="M13.7119 69.7293L41.9935 97.3718L70.2881 69.7293C75.8811 64.2611 79.6896 57.2946 81.2322 49.7109C82.7747 42.1272 81.9819 34.2667 78.9541 27.1233C75.9263 19.98 70.7994 13.8747 64.2217 9.57916C57.644 5.28364 49.9107 2.99072 42 2.99072C34.0892 2.99072 26.356 5.28363 19.7783 9.57916C13.2006 13.8747 8.07369 19.98 5.04587 27.1233C2.01806 34.2667 1.22529 42.1272 2.76783 49.7109C4.31037 57.2946 8.11891 64.2611 13.7119 69.7293Z" fill="#F5F3F0" stroke="url(#paint0_linear_40_378)" stroke-width="4"/>
<defs>
<linearGradient id="paint0_linear_40_378" x1="77.6542" y1="30.8188" x2="0.547719" y2="61.8654" gradientUnits="userSpaceOnUse">
<stop offset="0.504594" stop-color="#2AB2DF"/>
<stop offset="0.711212" stop-color="#00BEB0"/>
<stop offset="1" stop-color="#4A5660"/>
</linearGradient>
</defs>
</svg>
