<svg width="330" height="353" viewBox="0 0 330 353" fill="none" xmlns="http://www.w3.org/2000/svg">
<g clip-path="url(#clip0_127_391)">
<path d="M-34.9536 471.765L-34.3708 471.195L-33.5562 471.195L-33.4437 471.195L-32.6291 471.195L-32.0463 471.765C-6.32038 496.889 28.2351 510.857 64.1507 510.649C100.066 510.441 134.459 496.076 159.894 470.655C198.143 432.315 224.191 383.466 234.744 330.286C245.298 277.106 239.882 221.982 219.18 171.887C198.479 121.793 163.423 78.9765 118.447 48.853C73.4699 18.7296 20.5922 2.65135 -33.5 2.65136C-87.5921 2.65136 -140.47 18.7296 -185.447 48.853C-230.423 78.9765 -265.479 121.793 -286.18 171.887C-306.881 221.982 -312.298 277.106 -301.744 330.286C-291.191 383.466 -265.143 432.315 -226.894 470.655C-201.459 496.076 -167.066 510.441 -131.151 510.649C-95.2349 510.857 -60.6795 496.889 -34.9536 471.765ZM125.34 435.982L125.339 435.984C109.068 452.267 87.0757 461.51 64.0818 461.725C41.0879 461.941 18.9268 453.112 2.3546 437.136L0.888843 435.723L2.32781 434.282L63.0216 373.53C82.1272 354.38 95.1391 329.981 100.411 303.417C105.683 276.853 102.978 249.319 92.6378 224.297C82.2979 199.275 64.7881 177.889 42.3232 162.843C19.8584 147.796 -6.55267 139.766 -33.5701 139.766C-60.5875 139.766 -86.9986 147.796 -109.463 162.843C-131.928 177.889 -149.438 199.275 -159.778 224.297C-170.118 249.319 -172.823 276.853 -167.551 303.417C-162.28 329.981 -149.268 354.38 -130.162 373.53L-69.5237 434.283L-68.0851 435.724L-69.5522 437.137C-86.1204 453.087 -108.263 461.899 -131.236 461.683C-154.209 461.468 -176.183 452.243 -192.451 435.985L-192.453 435.982C-223.874 404.483 -245.271 364.352 -253.938 320.665C-262.606 276.978 -258.154 231.696 -241.147 190.544C-224.14 149.392 -195.341 114.218 -158.39 89.4707C-121.439 64.7236 -77.997 51.5146 -33.5562 51.5146C10.8846 51.5146 54.3271 64.7236 91.2779 89.4707C128.229 114.218 157.028 149.392 174.035 190.544C191.042 231.696 195.493 276.978 186.826 320.665C178.159 364.352 156.762 404.483 125.34 435.982ZM-32.1403 399.75L-33.5559 401.169L-34.9718 399.75L-95.6665 338.941L-95.667 338.94C-107.944 326.631 -116.303 310.949 -119.689 293.879C-123.075 276.809 -121.335 259.116 -114.689 243.037C-108.043 226.958 -96.7898 213.215 -82.3509 203.545C-67.912 193.875 -50.9362 188.713 -33.5701 188.713C-16.204 188.713 0.771615 193.875 15.2105 203.545C29.6494 213.215 40.9028 226.958 47.5486 243.037C54.1943 259.116 55.9343 276.809 52.5487 293.879C49.163 310.949 40.8036 326.631 28.5267 338.94L28.5265 338.94L-32.1403 399.75Z" stroke="white" stroke-width="4"/>
<path d="M-34.9536 471.765L-34.3708 471.195L-33.5562 471.195L-33.4437 471.195L-32.6291 471.195L-32.0463 471.765C-6.32038 496.889 28.2351 510.857 64.1507 510.649C100.066 510.441 134.459 496.076 159.894 470.655C198.143 432.315 224.191 383.466 234.744 330.286C245.298 277.106 239.882 221.982 219.18 171.887C198.479 121.793 163.423 78.9765 118.447 48.853C73.4699 18.7296 20.5922 2.65135 -33.5 2.65136C-87.5921 2.65136 -140.47 18.7296 -185.447 48.853C-230.423 78.9765 -265.479 121.793 -286.18 171.887C-306.881 221.982 -312.298 277.106 -301.744 330.286C-291.191 383.466 -265.143 432.315 -226.894 470.655C-201.459 496.076 -167.066 510.441 -131.151 510.649C-95.2349 510.857 -60.6795 496.889 -34.9536 471.765ZM125.34 435.982L125.339 435.984C109.068 452.267 87.0757 461.51 64.0818 461.725C41.0879 461.941 18.9268 453.112 2.3546 437.136L0.888843 435.723L2.32781 434.282L63.0216 373.53C82.1272 354.38 95.1391 329.981 100.411 303.417C105.683 276.853 102.978 249.319 92.6378 224.297C82.2979 199.275 64.7881 177.889 42.3232 162.843C19.8584 147.796 -6.55267 139.766 -33.5701 139.766C-60.5875 139.766 -86.9986 147.796 -109.463 162.843C-131.928 177.889 -149.438 199.275 -159.778 224.297C-170.118 249.319 -172.823 276.853 -167.551 303.417C-162.28 329.981 -149.268 354.38 -130.162 373.53L-69.5237 434.283L-68.0851 435.724L-69.5522 437.137C-86.1204 453.087 -108.263 461.899 -131.236 461.683C-154.209 461.468 -176.183 452.243 -192.451 435.985L-192.453 435.982C-223.874 404.483 -245.271 364.352 -253.938 320.665C-262.606 276.978 -258.154 231.696 -241.147 190.544C-224.14 149.392 -195.341 114.218 -158.39 89.4707C-121.439 64.7236 -77.997 51.5146 -33.5562 51.5146C10.8846 51.5146 54.3271 64.7236 91.2779 89.4707C128.229 114.218 157.028 149.392 174.035 190.544C191.042 231.696 195.493 276.978 186.826 320.665C178.159 364.352 156.762 404.483 125.34 435.982ZM-32.1403 399.75L-33.5559 401.169L-34.9718 399.75L-95.6665 338.941L-95.667 338.94C-107.944 326.631 -116.303 310.949 -119.689 293.879C-123.075 276.809 -121.335 259.116 -114.689 243.037C-108.043 226.958 -96.7898 213.215 -82.3509 203.545C-67.912 193.875 -50.9362 188.713 -33.5701 188.713C-16.204 188.713 0.771615 193.875 15.2105 203.545C29.6494 213.215 40.9028 226.958 47.5486 243.037C54.1943 259.116 55.9343 276.809 52.5487 293.879C49.163 310.949 40.8036 326.631 28.5267 338.94L28.5265 338.94L-32.1403 399.75Z" stroke="url(#paint0_linear_127_391)" stroke-width="4"/>
</g>
<defs>
<linearGradient id="paint0_linear_127_391" x1="-279.068" y1="151.614" x2="210.23" y2="401.748" gradientUnits="userSpaceOnUse">
<stop offset="0.504594" stop-color="#2AB2DF"/>
<stop offset="0.711212" stop-color="#00BEB0"/>
<stop offset="1" stop-color="#4A5660"/>
</linearGradient>
<clipPath id="clip0_127_391">
<path d="M0 0.651367H330V352.651H7.99999C3.58171 352.651 0 349.07 0 344.651V0.651367Z" fill="white"/>
</clipPath>
</defs>
</svg>
