<svg width="363" height="399" viewBox="0 0 363 399" fill="none" xmlns="http://www.w3.org/2000/svg">
<mask id="mask0_127_369" style="mask-type:alpha" maskUnits="userSpaceOnUse" x="0" y="0" width="363" height="399">
<rect y="0.167236" width="362.386" height="398" rx="8" fill="#1B2431"/>
</mask>
<g mask="url(#mask0_127_369)">
<path d="M683.499 -369.173L683.501 -369.171C732.188 -320.459 765.343 -258.398 778.773 -190.836C792.203 -123.275 785.306 -53.2462 758.953 10.3942C732.601 74.0346 687.976 128.429 630.722 166.699C573.469 204.969 506.157 225.395 437.299 225.395C368.44 225.395 301.129 204.969 243.875 166.699C186.621 128.429 141.997 74.0346 115.644 10.3942C89.2916 -53.2462 82.3944 -123.275 95.8246 -190.836C109.255 -258.398 142.409 -320.459 191.096 -369.171L191.099 -369.174C216.295 -394.305 250.327 -408.564 285.905 -408.897C321.483 -409.23 355.776 -395.61 381.437 -370.955L383.644 -368.834L381.48 -366.67L287.496 -272.693C257.87 -243.057 237.694 -205.298 229.52 -164.19C221.346 -123.082 225.54 -80.4731 241.573 -41.7505C257.606 -3.02777 284.756 30.069 319.591 53.3546C354.427 76.6401 395.381 89.0687 437.277 89.0687C479.173 89.0687 520.128 76.6401 554.963 53.3546C589.798 30.069 616.948 -3.02776 632.981 -41.7505C649.013 -80.4731 653.208 -123.082 645.034 -164.19C636.859 -205.297 616.684 -243.056 587.06 -272.692L587.058 -272.693M683.499 -369.173L589.18 -274.814L587.058 -272.693M683.499 -369.173C658.298 -394.344 624.238 -408.629 588.628 -408.962C553.017 -409.295 518.695 -395.649 493.028 -370.953L490.823 -368.832L492.988 -366.669L587.058 -272.693M683.499 -369.173L587.058 -272.693M435.205 -424.651L436.078 -423.799L437.299 -423.799L437.473 -423.799L438.693 -423.799L439.567 -424.651C479.458 -463.533 533.042 -485.15 588.736 -484.829C644.43 -484.507 697.761 -462.274 737.201 -422.934C796.497 -363.613 836.878 -288.034 853.238 -205.754C869.599 -123.473 861.202 -38.1863 829.11 39.3207C797.019 116.828 742.673 183.074 672.947 229.682C603.221 276.29 521.245 301.168 437.386 301.168C353.527 301.168 271.551 276.29 201.824 229.682C132.098 183.074 77.7527 116.828 45.6611 39.3207C13.5694 -38.1863 5.17278 -123.473 21.5331 -205.754C37.8931 -288.033 78.2745 -363.613 137.57 -422.933C177.011 -462.274 230.342 -484.507 286.036 -484.829C341.73 -485.15 395.313 -463.533 435.205 -424.651ZM439.42 -313.123L437.299 -315.245L435.177 -313.124L341.106 -219.059L341.105 -219.058C322.091 -200.031 309.143 -175.79 303.899 -149.402C298.655 -123.014 301.35 -95.6627 311.643 -70.8066C321.937 -45.9506 339.367 -24.7064 361.729 -9.75946C384.091 5.18747 410.382 13.1661 437.277 13.1661C464.172 13.1661 490.462 5.18748 512.825 -9.75945C535.187 -24.7064 552.617 -45.9506 562.911 -70.8066C573.204 -95.6627 575.899 -123.014 570.655 -149.402C565.411 -175.79 552.463 -200.031 533.449 -219.058L531.327 -216.938L533.448 -219.059L439.42 -313.123Z" stroke="url(#paint0_radial_127_369)" stroke-width="6"/>
</g>
<defs>
<radialGradient id="paint0_radial_127_369" cx="0" cy="0" r="1" gradientUnits="userSpaceOnUse" gradientTransform="translate(435.643 -123.437) rotate(-27.125) scale(425.685 394.77)">
<stop offset="0.276042" stop-color="#2AB2DF"/>
<stop offset="0.711212" stop-color="#00BEB0" stop-opacity="0.42"/>
<stop offset="1" stop-color="#2AB2DF" stop-opacity="0.3"/>
</radialGradient>
</defs>
</svg>
